<?xml version="1.0" encoding="UTF-8"?>
<svg version="1.1" xmlns="http://www.w3.org/2000/svg" width="64" height="64">
<path d="M0 0 C2.91259766 1.23754883 2.91259766 1.23754883 5.9140625 2.95703125 C7.00460938 3.57513672 8.09515625 4.19324219 9.21875 4.83007812 C10.3428125 5.48427734 11.466875 6.13847656 12.625 6.8125 C14.32269531 7.77639648 14.32269531 7.77639648 16.0546875 8.75976562 C26.69040573 14.84001923 26.69040573 14.84001923 29 17 C29 18.32 29 19.64 29 21 C26.5 23.25 26.5 23.25 24 25 C25.65 25.99 27.3 26.98 29 28 C28.64950425 31.24208567 28.43778819 32.61527704 25.9375 34.8125 C24.9784375 35.4003125 24.9784375 35.4003125 24 36 C25.65 36.99 27.3 37.98 29 39 C28.84130859 41.2824707 28.84130859 41.2824707 28 44 C25.63916016 45.82104492 25.63916016 45.82104492 22.5390625 47.48046875 C21.42789063 48.08697266 20.31671875 48.69347656 19.171875 49.31835938 C17.98985874 49.94192858 16.80756396 50.5649701 15.625 51.1875 C14.44965647 51.82066371 13.27516577 52.45541328 12.1015625 53.09179688 C9.94536038 54.25849189 7.78508386 55.41770851 5.61962891 56.56713867 C2.88685552 58.01232458 2.88685552 58.01232458 0 60 C-4.66505097 60.48121328 -7.38982411 59.62941361 -11.40625 57.296875 C-12.39753906 56.72839844 -13.38882812 56.15992188 -14.41015625 55.57421875 C-15.42980469 54.97222656 -16.44945313 54.37023438 -17.5 53.75 C-18.51964844 53.16347656 -19.53929687 52.57695313 -20.58984375 51.97265625 C-23.40953601 50.34097477 -26.20673307 48.67638727 -29 47 C-29.67804687 46.61263672 -30.35609375 46.22527344 -31.0546875 45.82617188 C-32.71875 44.828125 -32.71875 44.828125 -35 43 C-35 41.68 -35 40.36 -35 39 C-32.5 36.75 -32.5 36.75 -30 35 C-31.65 34.01 -33.3 33.02 -35 32 C-34.64950425 28.75791433 -34.43778819 27.38472296 -31.9375 25.1875 C-31.298125 24.795625 -30.65875 24.40375 -30 24 C-31.65 23.01 -33.3 22.02 -35 21 C-34.84130859 18.7175293 -34.84130859 18.7175293 -34 16 C-31.63916016 14.17895508 -31.63916016 14.17895508 -28.5390625 12.51953125 C-27.42789062 11.91302734 -26.31671875 11.30652344 -25.171875 10.68164062 C-23.98985874 10.05807142 -22.80756396 9.4350299 -21.625 8.8125 C-20.44965647 8.17933629 -19.27516577 7.54458672 -18.1015625 6.90820312 C-15.94536038 5.74150811 -13.78508386 4.58229149 -11.61962891 3.43286133 C-4.53607865 -0.44163601 -4.53607865 -0.44163601 0 0 Z M-9.4453125 7.84375 C-11.05986328 8.72353516 -11.05986328 8.72353516 -12.70703125 9.62109375 C-13.83496094 10.24113281 -14.96289062 10.86117188 -16.125 11.5 C-17.26066406 12.12003906 -18.39632813 12.74007813 -19.56640625 13.37890625 C-22.37966203 14.91555857 -25.1907327 16.45607167 -28 18 C-24.38247376 21.93640073 -19.80957213 24.16639714 -15.1875 26.75 C-14.29740234 27.26949219 -13.40730469 27.78898437 -12.49023438 28.32421875 C-11.62076172 28.81019531 -10.75128906 29.29617187 -9.85546875 29.796875 C-9.06809326 30.24385742 -8.28071777 30.69083984 -7.46948242 31.15136719 C-3.35777311 32.56434807 -0.24373571 31.57926938 3.60888672 29.78491211 C4.45725098 29.28741455 5.30561523 28.78991699 6.1796875 28.27734375 C7.1078125 27.73916016 8.0359375 27.20097656 8.9921875 26.64648438 C9.94351563 26.08251953 10.89484375 25.51855469 11.875 24.9375 C12.84953125 24.36966797 13.8240625 23.80183594 14.828125 23.21679688 C17.2237038 21.81937591 19.61396262 20.41363019 22 19 C17.58474399 15.55559499 12.7743828 12.99780528 7.875 10.3125 C6.95589844 9.80138672 6.03679688 9.29027344 5.08984375 8.76367188 C4.21199219 8.28091797 3.33414063 7.79816406 2.4296875 7.30078125 C1.62772949 6.85903564 0.82577148 6.41729004 -0.00048828 5.9621582 C-3.88050955 4.09510523 -5.86333621 5.88308929 -9.4453125 7.84375 Z M-27 29 C-27 29.66 -27 30.32 -27 31 C-23.2879118 33.23804621 -19.55307666 35.43495631 -15.8125 37.625 C-14.75740234 38.26179688 -13.70230469 38.89859375 -12.61523438 39.5546875 C-11.08286133 40.44414063 -11.08286133 40.44414063 -9.51953125 41.3515625 C-8.58214111 41.90666504 -7.64475098 42.46176758 -6.67895508 43.03369141 C-4.04681081 44.2699685 -4.04681081 44.2699685 -1.45898438 43.328125 C-0.64751953 42.88984375 0.16394531 42.4515625 1 42 C1.79317627 41.59185059 2.58635254 41.18370117 3.40356445 40.76318359 C4.215271 40.31281738 5.02697754 39.86245117 5.86328125 39.3984375 C6.74951172 38.90859375 7.63574219 38.41875 8.54882812 37.9140625 C9.9168457 37.15222656 9.9168457 37.15222656 11.3125 36.375 C12.24384766 35.859375 13.17519531 35.34375 14.13476562 34.8125 C16.42463469 33.54426483 18.71297715 32.27335838 21 31 C21 30.34 21 29.68 21 29 C18.12808163 28.10252551 15.95155998 27.61036947 13.1015625 28.77734375 C11.02659573 29.96245323 9.00834539 31.20514574 7 32.5 C0.03895414 36.98804273 0.03895414 36.98804273 -4.0546875 37.03515625 C-7.69147487 35.75697501 -10.86878327 33.96475751 -14.125 31.9375 C-20.15398532 27.87772782 -20.15398532 27.87772782 -27 29 Z M-26.75 40.5 C-27.1625 40.995 -27.575 41.49 -28 42 C-24.14328857 44.24148459 -20.26227077 46.43700907 -16.375 48.625 C-15.28058594 49.26179688 -14.18617187 49.89859375 -13.05859375 50.5546875 C-11.99511719 51.14765625 -10.93164062 51.740625 -9.8359375 52.3515625 C-8.37486572 53.18421631 -8.37486572 53.18421631 -6.88427734 54.03369141 C-2.35693337 55.55047044 0.41116261 53.78070322 4.51708984 51.76318359 C5.32355957 51.31281738 6.1300293 50.86245117 6.9609375 50.3984375 C7.84394531 49.90859375 8.72695313 49.41875 9.63671875 48.9140625 C10.54035156 48.40617187 11.44398437 47.89828125 12.375 47.375 C13.30183594 46.859375 14.22867188 46.34375 15.18359375 45.8125 C17.45829425 44.54617189 19.73028792 43.27524075 22 42 C20.64025374 40.450282 20.64025374 40.450282 19 39 C13.68566703 39.13075687 9.05075495 42.63254618 4.61523438 45.29296875 C1.51245914 47.05068305 -0.40520105 48.00076748 -4.02734375 47.99609375 C-7.69670776 46.76654339 -10.85861895 44.97108562 -14.125 42.9375 C-20.26491237 38.6051323 -20.26491237 38.6051323 -26.75 40.5 Z " fill="#2C88FF" transform="translate(35,2)"/>
<path d="M0 0 C3.27642756 0.25866533 4.60820723 0.55416685 6.8125 3.0625 C7.204375 3.701875 7.59625 4.34125 8 5 C6.7251791 7.84383123 5.54862922 10.13754018 3 12 C0.8125 11.6875 0.8125 11.6875 -1 11 C-0.814375 10.0925 -0.62875 9.185 -0.4375 8.25 C-0.03679353 5.27332338 -0.1736404 3.78896366 -1 1 C-0.67 0.67 -0.34 0.34 0 0 Z " fill="#189FFF" transform="translate(38,15)"/>
<path d="M0 0 C2.625 0.375 2.625 0.375 5 1 C4.814375 1.9075 4.62875 2.815 4.4375 3.75 C4.04265379 6.68314324 4.05308428 8.2644657 5 11 C3.3125 11.8125 3.3125 11.8125 1 12 C-1.75 9.5625 -1.75 9.5625 -4 7 C-2.92598892 4.08482708 -2.22189824 2.22189824 0 0 Z " fill="#189FFF" transform="translate(22,15)"/>
<path d="M0 0 C1.32 0 2.64 0 4 0 C3.85904936 1.6254308 3.71207913 3.25034051 3.5625 4.875 C3.48128906 5.77992187 3.40007813 6.68484375 3.31640625 7.6171875 C3 10 3 10 2 12 C0.68 11.67 -0.64 11.34 -2 11 C-1.85892253 9.54119891 -1.71197585 8.08296449 -1.5625 6.625 C-1.48128906 5.81289063 -1.40007813 5.00078125 -1.31640625 4.1640625 C-1 2 -1 2 0 0 Z " fill="#1A9EFF" transform="translate(31,15)"/>
</svg>
